<svg width="53" height="14" viewBox="0 0 53 14" fill="none" xmlns="http://www.w3.org/2000/svg">
<path fill-rule="evenodd" clip-rule="evenodd" d="M13.5648 13.0851C14.2436 13.3972 14.9966 13.5532 15.8236 13.5532C16.5883 13.5532 17.232 13.4401 17.7548 13.2138C18.2854 12.9797 18.7106 12.7028 19.0305 12.3828C19.3504 12.0551 19.5767 11.7508 19.7094 11.4699H19.803V13.2489H21.8161V4.63479C21.8161 3.59703 21.6444 2.76995 21.3011 2.15354C20.9656 1.52932 20.5365 1.06506 20.0137 0.760761C19.4987 0.448654 18.9681 0.245784 18.4219 0.152152C17.8757 0.0507174 17.392 0 16.9706 0C16.3152 0 15.6481 0.0897308 14.9692 0.269192C14.2982 0.448654 13.674 0.760761 13.0966 1.20551C12.527 1.65027 12.0706 2.27058 11.7272 3.06645L13.6467 3.74528C13.8652 3.26932 14.2475 2.82457 14.7937 2.41103C15.3399 1.98968 16.0889 1.77901 17.0409 1.77901C17.9694 1.77901 18.6599 2.01309 19.1125 2.48125C19.5728 2.94161 19.803 3.58923 19.803 4.42412V4.49434C19.803 4.81425 19.686 5.04053 19.4519 5.17317C19.2256 5.30582 18.8628 5.39945 18.3634 5.45407C17.8718 5.50869 17.2281 5.58671 16.4322 5.68815C15.8236 5.76618 15.2189 5.87151 14.6181 6.00416C14.0251 6.1368 13.4789 6.33967 12.9796 6.61277C12.488 6.87806 12.094 7.24478 11.7975 7.71294C11.501 8.1733 11.3527 8.77801 11.3527 9.52706C11.3527 10.3776 11.5517 11.1032 11.9496 11.704C12.3475 12.3048 12.8859 12.7652 13.5648 13.0851ZM18.141 11.2827C17.5948 11.5948 16.9238 11.7508 16.1279 11.7508C15.3243 11.7508 14.661 11.5753 14.1383 11.2241C13.6233 10.8652 13.3658 10.3385 13.3658 9.64411C13.3658 9.12913 13.5023 8.72339 13.7754 8.42689C14.0563 8.13039 14.4231 7.90801 14.8756 7.75976C15.3282 7.60371 15.8158 7.49057 16.3386 7.42034L17.1813 7.32671C17.5324 7.2799 17.8913 7.22528 18.2581 7.16285C18.6326 7.10043 18.9603 7.03021 19.2412 6.95218C19.5299 6.86635 19.7172 6.77272 19.803 6.67129V8.52052C19.803 9.0589 19.6626 9.57778 19.3817 10.0772C19.1008 10.5687 18.6872 10.9706 18.141 11.2827ZM41.1513 13.5298C39.8951 13.5298 38.8066 13.2489 37.8859 12.6871C36.9729 12.1254 36.2707 11.3412 35.7791 10.3346C35.2876 9.32029 35.0418 8.14599 35.0418 6.81173C35.0418 5.46967 35.2837 4.28757 35.7674 3.26542C36.2512 2.24327 36.93 1.44349 37.8039 0.866097C38.6856 0.288699 39.7156 0 40.8938 0C41.5726 0 42.2476 0.113139 42.9186 0.339416C43.5896 0.565694 44.1982 0.93242 44.7444 1.43959C45.2984 1.94677 45.7393 2.6178 46.067 3.45268C46.3947 4.28757 46.5585 5.31362 46.5585 6.53084V7.39694H37.0596C37.0894 8.26646 37.2595 9.01162 37.5699 9.6324C37.9132 10.319 38.393 10.8418 39.0094 11.2007C39.6259 11.5519 40.3398 11.7274 41.1513 11.7274C41.6741 11.7274 42.15 11.6533 42.5792 11.505C43.0083 11.349 43.3789 11.1188 43.6911 10.8145C44.0032 10.5024 44.2411 10.1201 44.405 9.66751L46.3479 10.2293C46.145 10.8847 45.8017 11.4621 45.3179 11.9615C44.8419 12.4531 44.2489 12.8393 43.5389 13.1202C42.8289 13.3933 42.033 13.5298 41.1513 13.5298ZM37.5113 3.93255C37.25 4.47541 37.1008 5.0528 37.064 5.66474H44.5183C44.4661 5.05306 44.3386 4.49517 44.1358 3.99107C43.8627 3.31224 43.4531 2.77775 42.9069 2.38762C42.3685 1.99748 41.6975 1.80242 40.8938 1.80242C40.0901 1.80242 39.3996 2.00139 38.8222 2.39932C38.2526 2.78946 37.8156 3.30053 37.5113 3.93255ZM34.5972 0.163878L29.7751 13.249H27.7152L22.8932 0.163878H25.0701L28.6749 10.6039H28.8154L32.4202 0.163878H34.5972ZM9.83137 3.11331L8.02895 3.60488C7.85729 3.16013 7.56079 2.73878 7.13945 2.34085C6.7259 1.93511 6.07828 1.73224 5.19658 1.73224C4.40071 1.73224 3.73748 1.9195 3.2069 2.29403C2.67632 2.66076 2.41103 3.12111 2.41103 3.6751C2.41103 4.17447 2.59049 4.57241 2.94941 4.86891C3.31614 5.16541 3.88573 5.4073 4.6582 5.59456L6.60106 6.06272C7.76366 6.34362 8.62976 6.77667 9.19935 7.36187C9.77675 7.94707 10.0654 8.69222 10.0654 9.59733C10.0654 10.3464 9.85088 11.0174 9.42173 11.6104C8.99258 12.2034 8.39568 12.6716 7.63102 13.0149C6.86635 13.3582 5.97685 13.5299 4.9625 13.5299C3.62824 13.5299 2.52417 13.2373 1.65027 12.6521C0.784169 12.0669 0.23408 11.2203 0 10.1123L1.89605 9.64415C2.07551 10.3464 2.41883 10.8731 2.926 11.2242C3.44098 11.5753 4.11201 11.7509 4.93909 11.7509C5.86761 11.7509 6.60886 11.5519 7.16285 11.154C7.72465 10.7482 8.00554 10.2684 8.00554 9.71437C8.00554 8.79366 7.35792 8.17725 6.06268 7.86514L3.88573 7.35016C2.68412 7.06146 1.80242 6.62061 1.24063 6.02761C0.678833 5.43461 0.397936 4.68945 0.397936 3.79214C0.397936 3.05089 0.604707 2.39546 1.01825 1.82587C1.43959 1.25627 2.01309 0.811522 2.73874 0.491612C3.46439 0.1639 4.28367 4.35557e-05 5.19658 4.35557e-05C6.49963 4.35557e-05 7.51788 0.288743 8.25133 0.86614C8.99258 1.43574 9.51926 2.18479 9.83137 3.11331ZM50.0791 12.9446C50.3834 13.2411 50.7462 13.3894 51.1676 13.3894C51.5889 13.3894 51.9478 13.2411 52.2443 12.9446C52.5486 12.6403 52.7008 12.2775 52.7008 11.8561C52.7008 11.4348 52.5486 11.0759 52.2443 10.7794C51.9478 10.4751 51.5889 10.3229 51.1676 10.3229C50.7462 10.3229 50.3834 10.4751 50.0791 10.7794C49.7826 11.0759 49.6343 11.4348 49.6343 11.8561C49.6343 12.2775 49.7826 12.6403 50.0791 12.9446Z" fill="black"/>
</svg>
